<svg viewBox="0 0 512 512" xmlns="http://www.w3.org/2000/svg">
  <g transform="translate(0.000000,512.000000) scale(0.100000,-0.100000)"
     fill="#000000" stroke="none">
  <path d="M4037 4263 l-847 -848 0 544 c0 535 0 544 -21 578 -29 47 -90 77
    -147 70 -50 -5 -87 -29 -119 -77 l-23 -33 0 -752 0 -752 23 -34 c12 -18 38
    -44 56 -56 l34 -23 757 0 757 0 33 23 c55 37 75 72 75 132 0 60 -20 95 -75
    133 l-33 22 -543 0 c-299 0 -544 2 -544 5 0 3 383 386 850 852 l851 847 -108
    108 c-59 59 -112 108 -118 108 -5 0 -391 -381 -858 -847z"/>
  <path d="M580 2218 c-55 -38 -75 -73 -75 -133 0 -60 20 -95 75 -132 l33 -23
    543 0 c299 0 544 -2 544 -5 0 -3 -383 -386 -850 -852 l-851 -847 108 -108 c59
    -59 112 -108 118 -108 5 0 391 381 857 847 l848 848 0 -540 c0 -608 -3 -587
    76 -633 73 -43 159 -19 212 58 l22 33 0 752 0 752 -23 34 c-12 18 -38 44 -56
    56 l-34 23 -757 0 -757 0 -33 -22z"/>
  </g>
</svg>