<?xml version="1.0" encoding="UTF-8" standalone="no"?> <svg width="50" height="50" viewBox="0 0 50 50" fill="none" xmlns="http://www.w3.org/2000/svg">
<g clip-path="url(#clip0)">
<path d="M46.6016 39.3652L46.5039 38.4473L48.6328 30.3809L49.2676 29.2773C49.2969 28.6914 49.3164 28.0957 49.3164 27.4707C49.3164 25 49.082 22.5586 48.6328 20.2246L47.8809 19.7168L45.0488 11.1426L45.2441 10.459C42.3535 5.11719 38.1641 1.5918 33.4961 1.5918C29.2383 1.5918 25.3711 4.54102 22.5195 9.13086V10.1855L33.3008 31.3965L28.2812 43.0176L28.0078 45.4297C29.7168 45.9766 31.5723 46.2305 33.4961 46.2305C38.9551 46.2402 43.7598 44.1895 46.6016 39.3652Z" fill="#ABCEAE"/>
<path d="M37.4707 2.46094C36.2012 1.89453 34.873 1.5918 33.5059 1.5918C29.248 1.5918 25.3809 4.54102 22.5293 9.13086V10.1855L26.2988 17.5977C28.0762 10.2637 32.2559 4.56055 37.4707 2.46094Z" fill="#8BA08B"/>
<path d="M29.2578 40.791L28.291 43.0176L28.0176 45.4297C29.7266 45.9766 31.582 46.2305 33.5059 46.2305C33.6035 46.2305 33.7012 46.2305 33.7988 46.2305C32.0703 44.8242 30.5371 42.9688 29.2578 40.791Z" fill="#91AA92"/>
<path d="M47.9492 29.9902C47.5391 30.2148 47.041 30.2148 46.6309 29.9902L43.3594 28.2227C42.9492 27.998 42.4512 27.998 42.041 28.2227L38.7598 29.9902C38.3496 30.2148 37.8516 30.2148 37.4414 29.9902L34.1699 28.2227C34.0918 28.1738 34.0039 28.1445 33.916 28.1152L33.5156 28.8086V36.4453L33.9746 37.5293C34.043 37.5488 34.1016 37.5781 34.1602 37.6074L37.4414 39.375C37.8516 39.5996 38.3496 39.5996 38.7598 39.375L42.041 37.6074C42.4512 37.3828 42.9492 37.3828 43.3594 37.6074L46.6113 39.3652C48.1152 36.8164 49.0723 33.4863 49.2871 29.2773L47.9492 29.9902Z" fill="#FFC365"/>
<path d="M45.2539 10.459L43.3594 9.43359C42.9492 9.20898 42.4512 9.20898 42.041 9.43359L38.7598 11.2012C38.3496 11.4258 37.8516 11.4258 37.4414 11.2012L34.1602 9.43359C33.75 9.20898 33.2519 9.20898 32.8418 9.43359L29.5605 11.2012C29.1504 11.4258 28.6523 11.4258 28.2422 11.2012L24.9609 9.43359C24.5508 9.20898 24.0527 9.20898 23.6426 9.43359L23.1738 9.6875L22.8613 10.8496L30.0684 19.8926H30.8496L32.832 18.8184C33.2422 18.5938 33.7402 18.5938 34.1504 18.8184L37.4316 20.5859C37.8418 20.8106 38.3398 20.8106 38.75 20.5859L42.0312 18.8184C42.4414 18.5938 42.9394 18.5938 43.3496 18.8184L46.6309 20.5859C47.041 20.8106 47.5391 20.8106 47.9492 20.5859L48.6328 20.2148C47.959 16.6309 46.7871 13.291 45.2539 10.459Z" fill="#FFC365"/>
<path d="M28.584 11.3379C28.4668 11.3086 28.3594 11.2695 28.252 11.2109L24.9707 9.44336C24.5605 9.21875 24.0625 9.21875 23.6523 9.44336L23.1836 9.69727L22.8711 10.8594L26.7969 15.7813C27.2852 14.1992 27.8906 12.7051 28.584 11.3379Z" fill="#FFA90F"/>
<path d="M8.48633 44.2188L10.2637 44.4336L33.4473 35.8203L34.4629 34.7559C34.5996 33.2227 34.5312 31.5527 34.2285 29.7461L32.4609 29.2676L6.12305 39.1602L5.44922 40.2344C6.37695 41.8066 7.40234 43.125 8.48633 44.2188Z" fill="#FF94D5"/>
<path d="M11.8848 36.9922L6.12305 39.1602L5.44922 40.2344C6.38672 41.8066 7.40234 43.1348 8.49609 44.2187L10.2734 44.4336L16.1719 42.2461C14.5996 40.791 13.1543 39.0137 11.8848 36.9922Z" fill="#FF72C7"/>
<path d="M8.48633 44.2188C13.0176 48.7598 18.7109 49.2773 24.2969 47.2461C29.8828 45.2148 33.916 41.1523 34.4629 34.7656L8.48633 44.2188Z" fill="#ABCEAE"/>
<path d="M15.5469 41.6504L8.48633 44.2187C13.0176 48.7598 18.7109 49.2773 24.2969 47.2461C24.668 47.1094 25.0293 46.9629 25.3809 46.8164C21.9434 46.4941 18.5059 44.6387 15.5469 41.6504Z" fill="#88AA89"/>
<path d="M0.712895 23.0859L1.84571 23.5547L26.1914 15.0195L26.8262 13.5742C21.5625 6.94333 14.668 3.24216 9.03321 5.29294C3.39844 7.34372 0.488285 14.6191 0.712895 23.0859Z" fill="#60B9FE"/>
<path d="M11.8066 4.74609C10.8594 4.79492 9.92188 4.9707 9.03321 5.30273C3.39844 7.34375 0.488285 14.6191 0.712895 23.0859L1.84571 23.5547L6.98243 21.7578C6.48438 14.7949 8.30079 8.53516 11.8066 4.74609Z" fill="#1CA8FF"/>
<path d="M31.8848 23.916L3.90625 33.7988L3.11523 35.2637C3.80859 37.1387 4.58984 38.7891 5.44922 40.2344L34.2383 29.7559C33.9648 28.1055 33.5059 26.3379 32.832 24.4531L31.8848 23.916Z" fill="#60B9FE"/>
<path d="M9.31641 31.8848L3.90625 33.7988L3.11523 35.2637C3.80859 37.1387 4.58984 38.7891 5.44922 40.2344L12.3535 37.7246C11.1914 35.9668 10.1562 34.0137 9.31641 31.8848Z" fill="#1CA8FF"/>
<path d="M1.50391 29.707L2.43164 30.8008L30.3125 20.7617L30.4785 19.1602C29.3945 17.1387 28.1641 15.2637 26.8262 13.5742L0.712891 23.0859C0.771484 25.2344 1.03516 27.4707 1.50391 29.707Z" fill="#ABCEAE"/>
<path d="M8.01758 27.9297C7.38281 25.5176 7.03125 23.125 6.93359 20.8203L0.712891 23.0859C0.771484 25.2441 1.03516 27.4707 1.50391 29.7168L2.43164 30.8106L8.23242 28.7207C8.16406 28.457 8.08594 28.1934 8.01758 27.9297Z" fill="#82AF84"/>
<path d="M29.7461 19.9902C29.4336 20.3418 28.9746 20.5078 28.5059 20.4395L24.8145 19.8926C24.3555 19.8242 23.8867 19.9902 23.5742 20.3418L21.0938 23.125C20.7812 23.4766 20.3223 23.6426 19.8535 23.5742L16.1621 23.0273C15.7031 22.959 15.2344 23.125 14.9219 23.4766L12.4414 26.2598C12.1289 26.6113 11.6699 26.7773 11.2012 26.709L7.50977 26.1621C7.05078 26.0938 6.58203 26.2598 6.26953 26.6113L3.78906 29.3945C3.47656 29.7461 3.01758 29.9121 2.54883 29.8438L1.45508 29.6777C1.82617 31.4551 2.33398 33.2324 2.96875 34.9902C2.99805 35.0684 3.02734 35.1465 3.05664 35.2344L32.7734 24.4238C32.7441 24.3457 32.7148 24.2578 32.6855 24.1797C32.0508 22.4219 31.2891 20.7324 30.4297 19.1406L29.7461 19.9902Z" fill="#FFAFE2"/>
<path d="M8.01758 27.9298C7.86133 27.3536 7.72461 26.7677 7.60742 26.2013L7.54883 26.1915C7.08984 26.1231 6.62109 26.2892 6.30859 26.6407L3.82813 29.4239C3.51563 29.7755 3.05664 29.9415 2.58789 29.8731L1.49414 29.7071C1.86523 31.4845 2.37305 33.2618 3.00781 35.0196C3.03711 35.0977 3.06641 35.1759 3.0957 35.2638L9.70703 32.8614C9.04297 31.3087 8.47656 29.6583 8.01758 27.9298Z" fill="#FF94D5"/>
<path d="M2.86133 36.7676C7.71484 48.5254 16.6016 51.5332 25.9082 47.3633C26.6699 47.0215 27.3926 46.6406 28.0762 46.2305C29.7266 46.7187 31.543 46.9726 33.457 46.9726C42.5391 46.9726 49.0723 41.543 49.9121 30.0684C50.5371 21.4551 47.959 10.6152 41.7969 4.62891C41.5039 4.3457 38.7832 2.03125 38.5 2.32422C38.2168 2.61719 35.5797 1.49805 38 3.5C38.8789 4.34961 42.4707 7.51953 43.2227 8.62305C42.6953 8.47656 42.1387 8.53516 41.6504 8.79883L38.3691 10.5664C38.1738 10.6738 37.9492 10.6738 37.7539 10.5664L34.4629 8.78906C33.8379 8.44726 33.0762 8.44726 32.4512 8.78906L29.1699 10.5566C28.9746 10.6641 28.75 10.6641 28.5547 10.5566L25.2734 8.78906C24.7852 8.52539 24.2187 8.4668 23.7012 8.61328C26.4844 4.55078 29.9219 2.32422 33.4668 2.32422C35.0781 2.32422 36.6699 2.7832 38.2031 3.68164C38.5547 3.88672 39.0039 3.76953 39.209 3.41797C41.7969 4.62891 39.2969 2.61719 38.9453 2.41211C37.1777 1.37695 35.3418 0.849609 33.4668 0.849609C29.3457 0.849609 25.4102 3.39844 22.3242 8.03711C17.6172 4.3457 12.8027 3.125 8.7207 4.60937C-1.5918 8.35937 -1.66016 25.8496 2.86133 36.7676ZM2.07031 29.0625C1.70898 27.2266 1.49414 25.3906 1.41601 23.5937L26.5234 14.4531C27.627 15.8789 28.6328 17.4316 29.541 19.0723C29.1699 19.4824 28.9941 19.7852 28.5742 19.7266L24.8828 19.1797C24.1699 19.0723 23.4668 19.3359 22.9883 19.8633L20.5078 22.6465C20.3613 22.8125 20.1465 22.8906 19.9316 22.8613L16.2402 22.3144C15.5371 22.207 14.8242 22.4707 14.3457 22.998L11.8652 25.7812C11.7187 25.9473 11.5039 26.0254 11.2891 25.9961L7.59765 25.4492C6.89453 25.3418 6.18164 25.6055 5.70312 26.1328L3.22266 28.916C3.07617 29.082 2.86133 29.1601 2.64648 29.1309L2.07031 29.0625ZM2.40234 30.5957C3.19336 30.7129 3.87695 30.4199 4.32617 29.9121L6.80664 27.1289C6.95312 26.9629 7.16797 26.8848 7.38281 26.9141L11.0742 27.4609C11.7871 27.5684 12.4902 27.3047 12.9687 26.7773L15.4492 23.9941C15.5957 23.8281 15.8105 23.75 16.0254 23.7793L19.7168 24.3262C20.4297 24.4336 21.1328 24.1699 21.6113 23.6426L24.0918 20.8594C24.2383 20.6934 24.4531 20.6152 24.668 20.6445L28.3594 21.1914C29.043 21.2891 29.7461 21.0644 30.2734 20.4785C30.8398 21.6113 31.3672 22.793 31.8359 24.0332L3.49609 34.3262C3.04687 33.0273 2.69531 31.8262 2.40234 30.5957ZM4.01367 35.6934L32.3242 25.3906C32.7539 26.6699 33.0957 27.9492 33.3496 29.2773L5.72265 39.3359C5.09765 38.2226 4.53125 37.0117 4.01367 35.6934ZM24.3652 46.416C19.2383 48.3984 14.0527 48.1641 9.80469 44.5019L19.5117 40.9668C19.8926 40.8301 31.1367 36.25 31 35.8691C30.8633 35.4883 19.3945 39.4531 19.0137 39.5898L8.60351 43.3789C7.87109 42.5976 7.1582 41.6797 6.47461 40.6152L33.5742 30.7519C33.7305 31.9629 33.7695 33.1348 33.7012 34.2383L22.2266 38.418C21.8457 38.5547 21.6504 38.9746 21.7871 39.3555C21.9238 39.7363 22.3437 39.9316 22.7246 39.7949L33.5254 35.8691C32.6953 40.9863 29.2969 44.5117 24.3652 46.416ZM33.457 45.498C32.1289 45.498 30.8594 45.3711 29.668 45.1172C31.8262 43.4277 33.4375 41.2598 34.3652 38.5742L37.041 40.0195C37.3535 40.1855 37.7051 40.2734 38.0469 40.2734C38.3887 40.2734 38.7402 40.1855 39.0527 40.0195L42.334 38.2519C42.5293 38.1445 42.7539 38.1445 42.9492 38.2519L45.5273 39.6484C42.2852 44.5312 37.0801 45.498 33.457 45.498ZM46.2598 38.3789L43.6523 36.9629C43.0273 36.6211 42.2656 36.6211 41.6406 36.9629L38.3594 38.7305C38.1641 38.8379 37.9394 38.8379 37.7441 38.7305L34.7852 37.1289C35.332 34.8144 35.3613 32.2461 34.8828 29.4531L37.0508 30.625C37.6855 30.9668 38.4375 30.9668 39.0625 30.625L42.3437 28.8574C42.5391 28.75 42.7637 28.75 42.959 28.8574L46.2402 30.625C46.8652 30.9668 47.6269 30.9668 48.2519 30.625L48.3984 30.5469C48.1152 33.5937 47.4023 36.2207 46.2598 38.3789ZM48.5059 28.8281L47.5488 29.3457C47.3535 29.4531 47.1289 29.4531 46.9336 29.3457L43.6523 27.5781C43.0273 27.2363 42.2656 27.2363 41.6406 27.5781L38.3594 29.3457C38.1641 29.4531 37.9394 29.4531 37.7441 29.3457L34.4922 27.5879C33.8867 25.1074 32.9297 22.5488 31.7969 20.2051L33.1543 19.4727C33.3496 19.3652 33.5742 19.3652 33.7695 19.4727L37.0508 21.2402C37.6855 21.582 38.4375 21.582 39.0625 21.2402L42.3437 19.4727C42.5391 19.3652 42.7637 19.3652 42.959 19.4727L46.2402 21.2402C46.7871 21.5332 47.4414 21.582 48.0371 21.3379C48.4375 23.8086 48.6035 26.3184 48.5059 28.8281ZM27.8516 11.8555C28.4863 12.1973 29.2383 12.1973 29.8633 11.8555L33.1445 10.0879C33.3398 9.98047 33.5644 9.98047 33.7598 10.0879L37.041 11.8555C37.6758 12.1973 38.4277 12.1973 39.0527 11.8555L42.334 10.0879C42.5293 9.98047 42.7539 9.98047 42.9492 10.0879L44.6484 11.0059C46.0254 13.6133 47.0898 16.6406 47.7539 19.8535C47.5488 19.9609 47.2852 20.1562 46.9336 19.9609L43.6523 18.1836C43.0273 17.8418 42.2656 17.8418 41.6406 18.1836L38.3594 19.9512C38.1641 20.0586 37.9394 20.0586 37.7441 19.9512L34.4629 18.1836C33.8379 17.8418 33.0762 17.8418 32.4512 18.1836L31.123 18.8965C29.4629 15.7812 27.3633 12.8223 24.8633 10.3223C24.8145 10.2734 24.7559 10.2148 24.707 10.166C24.6973 10.1562 24.6875 10.1465 24.6875 10.1465L27.8516 11.8555ZM9.22851 5.98633C15.0977 3.84766 21.5234 8.47656 25.5469 13.2422L1.38672 22.041C1.40625 15.8008 3.36914 8.11523 9.22851 5.98633Z" fill="black"/>
<path d="M6.35742 15.8301L5.81055 16.0254C5.42969 16.1622 5.23438 16.5821 5.3711 16.9629C5.50781 17.3438 5.92774 17.5391 6.30859 17.4024L6.85547 17.2071C7.23633 17.0704 7.43164 16.6504 7.29492 16.2696C7.1582 15.879 6.73828 15.6836 6.35742 15.8301Z" fill="black"/>
<path d="M12.3242 13.6524L11.7773 13.8477C11.3965 13.9844 11.2012 14.4043 11.3379 14.7852C11.4746 15.166 11.8945 15.3613 12.2754 15.2246L12.8223 15.0293C13.2031 14.8926 13.3984 14.4727 13.2617 14.0918C13.125 13.711 12.7051 13.5156 12.3242 13.6524Z" fill="black"/>
<path d="M36.0299 41.0436L35.483 41.2389C35.1022 41.3756 34.9069 41.7955 35.0436 42.1764C35.1803 42.5573 35.6002 42.7526 35.9811 42.6159L36.528 42.4205C36.9088 42.2838 37.1041 41.8639 36.9674 41.483C36.8307 41.1022 36.4108 40.9069 36.0299 41.0436Z" fill="black"/>
<path d="M18.291 11.4844L17.7441 11.6797C17.3633 11.8164 17.168 12.2363 17.3047 12.6172C17.4414 12.9981 17.8613 13.1934 18.2422 13.0567L18.7891 12.8613C19.1699 12.7246 19.3652 12.3047 19.2285 11.9238C19.0918 11.543 18.6719 11.3379 18.291 11.4844Z" fill="black"/>
</g>
<defs>
<clipPath id="clip0">
<rect width="50" height="50" fill="white"/>
</clipPath>
</defs>
</svg>
