<svg xmlns="http://www.w3.org/2000/svg" width="512" height="512" viewBox="0 0 16 16">
  <g>
    <path d="M8 1.003a7 7 0 0 0-7 7v.43c.09 1.51 1.91 1.79 3 .7a1.87 1.87 0 0 1 2.64 2.64c-1.1 1.16-.79 3.07.8 3.2h.6a7 7 0 1 0 0-14zm0 13h-.52a.58.58 0 0 1-.36-.14a.56.56 0 0 1-.15-.3a1.24 1.24 0 0 1 .35-1.08a2.87 2.87 0 0 0 0-4a2.87 2.87 0 0 0-4.06 0a1 1 0 0 1-.9.34a.41.41 0 0 1-.22-.12a.42.42 0 0 1-.1-.29v-.37a6 6 0 1 1 6 6zM9 3.997a1 1 0 1 1-2 0a1 1 0 0 1 2 0m3 7.007a1 1 0 1 1-2 0a1 1 0 0 1 2 0m-7-5a1 1 0 1 0 0-2a1 1 0 0 0 0 2m7-1a1 1 0 1 1-2 0a1 1 0 0 1 2 0M13 8a1 1 0 1 1-2 0a1 1 0 0 1 2 0"
          stroke="#000000" stroke-width="0.1" fill="#000000" />
    </g>
</svg>