<svg viewBox="0 0 512 512" xmlns="http://www.w3.org/2000/svg">
  <g transform="translate(0.000000,512.000000) scale(0.100000,-0.100000)"
     fill="#000000" stroke="none">
  <path d="M3325 5096 c-59 -27 -77 -46 -104 -106 -37 -81 -20 -169 45 -234 62
    -62 50 -61 608 -64 l510 -3 -786 -787 c-432 -433 -791 -797 -797 -808 -22 -45
    -30 -107 -19 -158 15 -69 85 -139 154 -154 51 -11 113 -3 158 19 11 6 375 365
    808 797 l787 786 3 -510 c3 -558 2 -546 64 -608 67 -66 154 -82 239 -42 59 27
    77 46 104 106 20 44 21 62 21 824 0 588 -3 789 -12 820 -16 53 -81 118 -134
    134 -31 9 -233 12 -820 12 l-779 0 -50 -24z"/>
  <path d="M2105 2343 c-83 -18 -86 -21 -882 -816 l-792 -791 -3 510 c-3 558 -2
    546 -64 608 -65 65 -153 82 -234 45 -60 -27 -79 -45 -106 -104 l-24 -50 0
    -779 c0 -587 3 -789 12 -820 16 -53 81 -118 134 -134 31 -9 233 -12 820 -12
    l779 0 50 24 c59 27 77 46 104 106 37 81 20 169 -45 234 -62 62 -50 61 -608
    64 l-510 3 786 787 c432 433 791 797 797 808 69 136 -11 295 -159 317 -19 2
    -44 3 -55 0z"/>
  </g>
</svg>