<svg viewBox="0 0 512 512" xmlns="http://www.w3.org/2000/svg">
  <g transform="translate(0.000000,512.000000) scale(0.100000,-0.100000)"
     fill="#000000" stroke="none">
    <path d="M2365 5113 c-430 -35 -871 -188 -1220 -421 -528 -353 -913 -896
      -1065 -1502 -152 -604 -83 -1229 196 -1782 136 -268 290 -475 516 -693 860
      -831 2183 -950 3182 -288 203 135 420 332 571 518 274 337 468 767 539 1190
      185 1112 -377 2214 -1385 2714 -299 149 -586 230 -919 260 -106 10 -321 12
      -415 4z m462 -428 c416 -55 801 -223 1108 -483 160 -136 348 -355 458 -532
      114 -186 223 -463 266 -680 74 -371 50 -756 -68 -1109 -180 -540 -581 -996
      -1094 -1246 -576 -282 -1267 -287 -1842 -16 -232 110 -415 239 -606 430 -327
      328 -517 693 -601 1156 -30 163 -32 524 -5 689 75 446 267 828 581 1154 337
      350 780 574 1261 637 141 18 400 18 542 0z"/>
    <path d="M2455 4337 c-160 -53 -255 -180 -255 -342 0 -145 74 -261 205 -322
      77 -36 210 -44 297 -19 181 53 286 226 248 411 -24 119 -91 203 -199 253 -46
      22 -73 27 -156 29 -63 2 -115 -2 -140 -10z"/>
    <path d="M1957 3343 c-4 -3 -7 -98 -7 -210 l0 -203 133 0 134 0 6 -317 c4
      -174 7 -509 7 -745 l0 -428 -72 0 c-40 0 -103 -3 -140 -7 l-68 -6 0 -200 0
      -200 46 7 c26 3 305 6 620 6 l574 0 0 200 0 200 -120 0 -120 0 0 323 c0 178
      -3 608 -7 955 l-6 632 -487 0 c-268 0 -490 -3 -493 -7z"/>
  </g>
</svg>